<svg width="658" height="658" viewBox="0 0 658 658" fill="none" xmlns="http://www.w3.org/2000/svg">
<path d="M382.644 385.867C397.146 390.701 411.647 398.757 424.537 408.425C437.428 418.093 447.095 429.372 456.763 442.262C464.819 455.152 472.876 469.654 477.71 484.155C482.543 500.268 484.155 514.769 484.155 530.882H463.208C463.208 513.158 459.986 495.434 453.54 479.321C440.65 447.096 414.87 422.926 384.255 410.036C356.864 398.757 326.249 397.146 297.246 405.202C285.967 408.425 274.689 413.259 265.021 418.093C245.685 429.372 229.573 445.484 218.294 464.82C207.015 485.766 200.57 508.324 200.57 532.493H179.623C179.623 500.268 189.291 469.654 207.015 443.873C216.682 430.983 226.35 419.704 239.24 410.036C252.131 400.369 266.632 392.312 281.134 387.478C263.41 377.811 248.908 364.92 239.24 347.196C234.407 339.14 231.184 329.472 227.961 319.805C221.516 295.635 223.128 269.855 232.795 247.297C244.074 221.517 265.021 200.57 290.801 189.291C318.193 178.012 348.807 178.012 376.199 189.291C401.98 200.57 422.926 221.517 434.205 247.297C443.873 269.855 445.484 295.635 439.039 319.805C435.816 329.472 432.594 337.529 427.76 347.196C422.926 355.253 416.481 363.309 410.036 369.754C398.757 374.588 390.701 381.033 382.644 385.867V385.867ZM240.852 289.19C240.852 300.469 242.463 313.36 247.297 323.027C256.964 343.974 273.077 360.087 294.024 369.754C316.582 379.422 340.751 379.422 361.698 369.754C382.644 360.087 398.757 343.974 408.425 323.027C418.092 300.469 418.092 276.3 408.425 255.353C398.757 234.407 382.644 218.294 361.698 208.626C339.14 198.959 314.97 198.959 294.024 208.626C273.077 218.294 256.964 234.407 247.297 255.353C242.463 265.021 240.852 277.911 240.852 289.19V289.19Z" fill="#2EAC68"/>
<path d="M490.6 538.939H453.541V530.882C453.541 514.769 450.318 497.045 443.873 480.933C432.594 451.929 408.425 427.76 377.81 414.87C352.03 403.591 323.027 401.98 295.635 410.036C285.968 413.259 274.689 416.481 265.021 422.926C247.297 434.205 231.184 448.707 219.905 468.042C208.626 487.378 203.792 509.936 203.792 530.882V538.939H166.733V530.882C166.733 497.045 176.401 464.82 195.736 437.428C205.404 424.538 216.683 411.648 229.573 401.98C239.24 395.535 248.908 389.09 260.187 384.256C255.353 381.033 250.519 377.811 247.297 372.977C239.24 364.92 232.795 356.864 227.962 348.808C223.128 340.751 218.294 331.084 215.071 321.416C208.626 295.635 210.237 268.244 219.905 244.075C245.686 184.457 313.359 157.065 374.588 181.235C401.98 192.514 424.538 215.071 437.428 244.075C447.095 268.244 448.707 295.635 442.262 321.416C439.039 331.084 435.816 340.751 429.371 350.419C424.538 360.087 418.092 368.143 410.036 374.588C406.813 377.811 401.98 382.645 397.146 385.867C408.425 390.701 418.092 395.535 427.76 403.591C440.65 413.259 451.929 426.149 461.597 439.039C471.265 451.929 477.71 468.042 482.544 482.544C487.377 498.657 490.6 514.769 490.6 532.493V538.939ZM468.042 522.826H474.487C474.487 509.936 471.265 497.045 468.042 485.766C463.208 471.265 456.763 458.375 448.707 445.484C440.65 432.594 429.371 422.926 418.092 413.259C406.813 403.591 392.312 397.146 377.81 392.312L361.698 385.867L376.199 377.811C384.256 372.977 392.312 368.143 398.757 361.698C405.202 355.253 410.036 348.808 414.87 340.751C419.704 332.695 422.926 324.638 426.149 316.582C432.594 294.024 430.983 271.466 421.315 248.908C398.757 197.347 339.14 173.178 287.579 194.125C263.41 203.793 244.074 224.739 232.795 248.908C227.962 261.799 224.739 274.689 224.739 289.19C224.739 298.858 226.35 306.914 227.962 316.582C229.573 324.638 232.795 334.306 237.629 342.363C247.297 358.475 260.187 371.366 276.3 379.422L290.801 387.478L274.689 393.923C260.187 398.757 247.297 406.814 234.407 416.481C223.128 426.149 211.849 435.817 203.792 448.707C187.68 471.265 179.623 498.657 178.012 526.048H184.457C186.068 503.49 192.513 480.932 203.792 461.597C215.071 440.651 232.795 424.538 253.742 411.648C265.021 405.202 276.3 400.369 287.579 397.146C318.193 389.09 350.419 390.701 379.422 403.591C413.259 416.481 439.039 443.873 453.541 477.71C464.819 490.6 468.042 506.713 468.042 522.826V522.826ZM329.472 384.256C316.582 384.256 303.692 381.033 292.413 376.199C269.855 366.532 250.519 348.808 240.852 326.25C231.184 302.081 231.184 276.3 240.852 252.131C250.519 229.573 268.243 211.849 290.801 200.57C314.971 190.902 340.751 190.902 364.92 200.57C387.478 210.238 406.813 227.962 416.481 252.131C426.149 276.3 426.149 302.081 416.481 326.25C406.813 348.808 389.089 366.532 366.531 376.199C355.253 382.644 342.362 384.256 329.472 384.256V384.256ZM329.472 208.626C318.193 208.626 308.525 210.238 298.858 215.071C279.522 223.128 265.021 239.241 255.353 258.576C247.297 277.911 247.297 300.469 255.353 321.416C263.41 340.751 279.522 355.253 298.858 364.92C318.193 372.977 340.751 372.977 361.698 364.92C381.033 356.864 395.535 340.751 405.202 321.416C413.259 302.081 413.259 279.523 405.202 258.576C397.146 239.241 381.033 224.739 361.698 215.071C350.419 210.238 340.751 208.626 329.472 208.626V208.626Z" fill="#2EAC68" stroke="#2EAC68" stroke-width="3"/>
<path d="M329.472 595.333C182.846 595.333 63.6113 476.099 62 329.472C62 182.846 181.235 63.6113 327.861 62C474.487 62 593.722 181.235 595.333 327.861C595.333 476.099 476.099 595.333 329.472 595.333ZM329.472 92.6143C198.959 92.6143 92.6143 198.959 92.6143 329.472C92.6143 459.986 198.959 566.33 329.472 566.33C459.986 566.33 566.33 459.986 566.33 329.472C564.719 197.347 459.986 92.6143 329.472 92.6143V92.6143Z" fill="#2EAC68"/>
</svg>
