<svg width="691" height="188" viewBox="0 0 691 188" fill="none" xmlns="http://www.w3.org/2000/svg">
<path d="M266.589 71V67.43L300.609 24.52L301.169 26.48H267.079V22H305.929V25.57L271.979 68.48L271.349 66.52H306.769V71H266.589ZM328.635 43.91H354.535V48.32H328.635V43.91ZM329.195 66.52H358.665V71H324.015V22H357.615V26.48H329.195V66.52ZM377.841 71V22H397.791C403.017 22 407.591 23.05 411.511 25.15C415.477 27.2033 418.557 30.0733 420.751 33.76C422.944 37.4467 424.041 41.6933 424.041 46.5C424.041 51.3067 422.944 55.5533 420.751 59.24C418.557 62.9267 415.477 65.82 411.511 67.92C407.591 69.9733 403.017 71 397.791 71H377.841ZM383.021 66.52H397.511C401.851 66.52 405.607 65.68 408.781 64C412.001 62.2733 414.497 59.9167 416.271 56.93C418.044 53.8967 418.931 50.42 418.931 46.5C418.931 42.5333 418.044 39.0567 416.271 36.07C414.497 33.0833 412.001 30.75 408.781 29.07C405.607 27.3433 401.851 26.48 397.511 26.48H383.021V66.52Z" fill="#7F07B9"/>
<path d="M266.589 71H261.589C261.589 73.7614 263.827 76 266.589 76V71ZM266.589 67.43L262.671 64.3237C261.97 65.2075 261.589 66.3022 261.589 67.43H266.589ZM300.609 24.52L305.416 23.1464C304.901 21.3439 303.421 19.9809 301.583 19.6158C299.744 19.2506 297.855 19.9447 296.691 21.4137L300.609 24.52ZM301.169 26.48V31.48C302.738 31.48 304.216 30.7435 305.161 29.491C306.105 28.2384 306.407 26.615 305.976 25.1064L301.169 26.48ZM267.079 26.48H262.079C262.079 29.2414 264.317 31.48 267.079 31.48V26.48ZM267.079 22V17C264.317 17 262.079 19.2386 262.079 22H267.079ZM305.929 22H310.929C310.929 19.2386 308.69 17 305.929 17V22ZM305.929 25.57L309.85 28.6724C310.549 27.7892 310.929 26.6961 310.929 25.57H305.929ZM271.979 68.48L267.219 70.01C267.784 71.7677 269.271 73.0709 271.088 73.4C272.904 73.729 274.754 73.0302 275.9 71.5824L271.979 68.48ZM271.349 66.52V61.52C269.751 61.52 268.25 62.2836 267.308 63.5747C266.367 64.8658 266.1 66.529 266.589 68.05L271.349 66.52ZM306.769 66.52H311.769C311.769 63.7586 309.53 61.52 306.769 61.52V66.52ZM306.769 71V76C309.53 76 311.769 73.7614 311.769 71H306.769ZM271.589 71V67.43H261.589V71H271.589ZM270.507 70.5363L304.527 27.6263L296.691 21.4137L262.671 64.3237L270.507 70.5363ZM295.801 25.8936L296.361 27.8536L305.976 25.1064L305.416 23.1464L295.801 25.8936ZM301.169 21.48H267.079V31.48H301.169V21.48ZM272.079 26.48V22H262.079V26.48H272.079ZM267.079 27H305.929V17H267.079V27ZM300.929 22V25.57H310.929V22H300.929ZM302.008 22.4676L268.058 65.3776L275.9 71.5824L309.85 28.6724L302.008 22.4676ZM276.739 66.95L276.109 64.99L266.589 68.05L267.219 70.01L276.739 66.95ZM271.349 71.52H306.769V61.52H271.349V71.52ZM301.769 66.52V71H311.769V66.52H301.769ZM306.769 66H266.589V76H306.769V66ZM328.635 43.91V38.91C325.873 38.91 323.635 41.1486 323.635 43.91H328.635ZM354.535 43.91H359.535C359.535 41.1486 357.296 38.91 354.535 38.91V43.91ZM354.535 48.32V53.32C357.296 53.32 359.535 51.0814 359.535 48.32H354.535ZM328.635 48.32H323.635C323.635 51.0814 325.873 53.32 328.635 53.32V48.32ZM329.195 66.52H324.195C324.195 69.2814 326.433 71.52 329.195 71.52V66.52ZM358.665 66.52H363.665C363.665 63.7586 361.426 61.52 358.665 61.52V66.52ZM358.665 71V76C361.426 76 363.665 73.7614 363.665 71H358.665ZM324.015 71H319.015C319.015 73.7614 321.253 76 324.015 76V71ZM324.015 22V17C321.253 17 319.015 19.2386 319.015 22H324.015ZM357.615 22H362.615C362.615 19.2386 360.376 17 357.615 17V22ZM357.615 26.48V31.48C360.376 31.48 362.615 29.2414 362.615 26.48H357.615ZM329.195 26.48V21.48C326.433 21.48 324.195 23.7186 324.195 26.48H329.195ZM328.635 48.91H354.535V38.91H328.635V48.91ZM349.535 43.91V48.32H359.535V43.91H349.535ZM354.535 43.32H328.635V53.32H354.535V43.32ZM333.635 48.32V43.91H323.635V48.32H333.635ZM329.195 71.52H358.665V61.52H329.195V71.52ZM353.665 66.52V71H363.665V66.52H353.665ZM358.665 66H324.015V76H358.665V66ZM329.015 71V22H319.015V71H329.015ZM324.015 27H357.615V17H324.015V27ZM352.615 22V26.48H362.615V22H352.615ZM357.615 21.48H329.195V31.48H357.615V21.48ZM324.195 26.48V66.52H334.195V26.48H324.195ZM377.841 71H372.841C372.841 73.7614 375.079 76 377.841 76V71ZM377.841 22V17C375.079 17 372.841 19.2386 372.841 22H377.841ZM411.511 25.15L409.15 29.5574C409.17 29.5685 409.191 29.5795 409.212 29.5903L411.511 25.15ZM420.751 33.76L425.048 31.2035L425.048 31.2035L420.751 33.76ZM420.751 59.24L425.048 61.7965L425.048 61.7965L420.751 59.24ZM411.511 67.92L413.831 72.3492C413.837 72.3458 413.844 72.3424 413.85 72.3389L411.511 67.92ZM383.021 66.52H378.021C378.021 69.2814 380.259 71.52 383.021 71.52V66.52ZM408.781 64L411.12 68.4189C411.128 68.4148 411.136 68.4106 411.144 68.4064L408.781 64ZM416.271 56.93L420.57 59.4827C420.576 59.473 420.581 59.4632 420.587 59.4535L416.271 56.93ZM416.271 36.07L420.57 33.5173L420.57 33.5173L416.271 36.07ZM408.781 29.07L406.391 33.4619C406.416 33.4758 406.442 33.4895 406.468 33.5029L408.781 29.07ZM383.021 26.48V21.48C380.259 21.48 378.021 23.7186 378.021 26.48H383.021ZM382.841 71V22H372.841V71H382.841ZM377.841 27H397.791V17H377.841V27ZM397.791 27C402.338 27 406.073 27.9094 409.15 29.5574L413.872 20.7426C409.108 18.1906 403.697 17 397.791 17V27ZM409.212 29.5903C412.386 31.2331 414.758 33.466 416.454 36.3165L425.048 31.2035C422.357 26.6806 418.569 23.1735 413.809 20.7096L409.212 29.5903ZM416.454 36.3165C418.133 39.1396 419.041 42.4821 419.041 46.5H429.041C429.041 40.9045 427.755 35.7538 425.048 31.2035L416.454 36.3165ZM419.041 46.5C419.041 50.5179 418.133 53.8604 416.454 56.6835L425.048 61.7965C427.755 57.2462 429.041 52.0955 429.041 46.5H419.041ZM416.454 56.6835C414.752 59.5442 412.366 61.8097 409.171 63.5011L413.85 72.3389C418.589 69.8303 422.363 66.3092 425.048 61.7965L416.454 56.6835ZM409.191 63.4908C406.106 65.1068 402.355 66 397.791 66V76C403.679 76 409.076 74.8398 413.831 72.3492L409.191 63.4908ZM397.791 66H377.841V76H397.791V66ZM383.021 71.52H397.511V61.52H383.021V71.52ZM397.511 71.52C402.497 71.52 407.09 70.5524 411.12 68.4189L406.441 59.5811C404.124 60.8076 401.204 61.52 397.511 61.52V71.52ZM411.144 68.4064C415.122 66.2729 418.307 63.2934 420.57 59.4827L411.971 54.3773C410.687 56.54 408.879 58.2737 406.418 59.5936L411.144 68.4064ZM420.587 59.4535C422.858 55.5686 423.931 51.2018 423.931 46.5H413.931C413.931 49.6382 413.23 52.2247 411.954 54.4065L420.587 59.4535ZM423.931 46.5C423.931 41.7649 422.864 37.381 420.57 33.5173L411.971 38.6227C413.224 40.7323 413.931 43.3018 413.931 46.5H423.931ZM420.57 33.5173C418.3 29.6941 415.098 26.7264 411.094 24.6371L406.468 33.5029C408.903 34.7735 410.695 36.4726 411.971 38.6227L420.57 33.5173ZM411.17 24.6781C407.13 22.4794 402.518 21.48 397.511 21.48V31.48C401.183 31.48 404.085 32.2073 406.391 33.4619L411.17 24.6781ZM397.511 21.48H383.021V31.48H397.511V21.48ZM378.021 26.48V66.52H388.021V26.48H378.021Z" fill="#7F07B9"/>
<path d="M30.8322 167V114.5H50.4822C54.9322 114.5 58.7572 115.225 61.9572 116.675C65.1572 118.075 67.6072 120.125 69.3072 122.825C71.0572 125.475 71.9322 128.7 71.9322 132.5C71.9322 136.2 71.0572 139.4 69.3072 142.1C67.6072 144.75 65.1572 146.8 61.9572 148.25C58.7572 149.7 54.9322 150.425 50.4822 150.425H33.9072L36.3822 147.8V167H30.8322ZM36.3822 148.25L33.9072 145.55H50.3322C55.5822 145.55 59.5572 144.425 62.2572 142.175C65.0072 139.875 66.3822 136.65 66.3822 132.5C66.3822 128.3 65.0072 125.05 62.2572 122.75C59.5572 120.45 55.5822 119.3 50.3322 119.3H33.9072L36.3822 116.675V148.25ZM91.4328 167V114.5H111.083C115.533 114.5 119.358 115.225 122.558 116.675C125.758 118.075 128.208 120.125 129.908 122.825C131.658 125.475 132.533 128.7 132.533 132.5C132.533 136.2 131.658 139.4 129.908 142.1C128.208 144.75 125.758 146.8 122.558 148.25C119.358 149.65 115.533 150.35 111.083 150.35H94.5078L96.9828 147.8V167H91.4328ZM127.283 167L113.783 147.95H119.783L133.358 167H127.283ZM96.9828 148.25L94.5078 145.625H110.933C116.183 145.625 120.158 144.475 122.858 142.175C125.608 139.875 126.983 136.65 126.983 132.5C126.983 128.3 125.608 125.05 122.858 122.75C120.158 120.45 116.183 119.3 110.933 119.3H94.5078L96.9828 116.675V148.25ZM176.082 167.45C172.132 167.45 168.457 166.8 165.057 165.5C161.707 164.15 158.782 162.275 156.282 159.875C153.832 157.425 151.907 154.6 150.507 151.4C149.157 148.15 148.482 144.6 148.482 140.75C148.482 136.9 149.157 133.375 150.507 130.175C151.907 126.925 153.832 124.1 156.282 121.7C158.782 119.25 161.707 117.375 165.057 116.075C168.407 114.725 172.082 114.05 176.082 114.05C180.032 114.05 183.682 114.725 187.032 116.075C190.382 117.375 193.282 119.225 195.732 121.625C198.232 124.025 200.157 126.85 201.507 130.1C202.907 133.35 203.607 136.9 203.607 140.75C203.607 144.6 202.907 148.15 201.507 151.4C200.157 154.65 198.232 157.475 195.732 159.875C193.282 162.275 190.382 164.15 187.032 165.5C183.682 166.8 180.032 167.45 176.082 167.45ZM176.082 162.5C179.232 162.5 182.132 161.975 184.782 160.925C187.482 159.825 189.807 158.3 191.757 156.35C193.757 154.35 195.307 152.05 196.407 149.45C197.507 146.8 198.057 143.9 198.057 140.75C198.057 137.6 197.507 134.725 196.407 132.125C195.307 129.475 193.757 127.175 191.757 125.225C189.807 123.225 187.482 121.7 184.782 120.65C182.132 119.55 179.232 119 176.082 119C172.932 119 170.007 119.55 167.307 120.65C164.607 121.7 162.257 123.225 160.257 125.225C158.307 127.175 156.757 129.475 155.607 132.125C154.507 134.725 153.957 137.6 153.957 140.75C153.957 143.85 154.507 146.725 155.607 149.375C156.757 152.025 158.307 154.35 160.257 156.35C162.257 158.3 164.607 159.825 167.307 160.925C170.007 161.975 172.932 162.5 176.082 162.5ZM246.572 167.45C242.572 167.45 238.872 166.8 235.472 165.5C232.122 164.15 229.197 162.275 226.697 159.875C224.247 157.475 222.322 154.65 220.922 151.4C219.572 148.15 218.897 144.6 218.897 140.75C218.897 136.9 219.572 133.35 220.922 130.1C222.322 126.85 224.272 124.025 226.772 121.625C229.272 119.225 232.197 117.375 235.547 116.075C238.947 114.725 242.647 114.05 246.647 114.05C250.647 114.05 254.297 114.675 257.597 115.925C260.947 117.175 263.797 119.075 266.147 121.625L262.697 125.15C260.497 122.95 258.072 121.375 255.422 120.425C252.772 119.475 249.922 119 246.872 119C243.622 119 240.622 119.55 237.872 120.65C235.172 121.7 232.797 123.225 230.747 125.225C228.747 127.175 227.172 129.475 226.022 132.125C224.922 134.725 224.372 137.6 224.372 140.75C224.372 143.85 224.922 146.725 226.022 149.375C227.172 152.025 228.747 154.35 230.747 156.35C232.797 158.3 235.172 159.825 237.872 160.925C240.622 161.975 243.597 162.5 246.797 162.5C249.797 162.5 252.622 162.05 255.272 161.15C257.972 160.25 260.447 158.725 262.697 156.575L265.847 160.775C263.347 162.975 260.422 164.65 257.072 165.8C253.722 166.9 250.222 167.45 246.572 167.45ZM260.522 160.1V140.75H265.847V160.775L260.522 160.1ZM289.055 167V114.5H308.705C313.155 114.5 316.98 115.225 320.18 116.675C323.38 118.075 325.83 120.125 327.53 122.825C329.28 125.475 330.155 128.7 330.155 132.5C330.155 136.2 329.28 139.4 327.53 142.1C325.83 144.75 323.38 146.8 320.18 148.25C316.98 149.65 313.155 150.35 308.705 150.35H292.13L294.605 147.8V167H289.055ZM324.905 167L311.405 147.95H317.405L330.98 167H324.905ZM294.605 148.25L292.13 145.625H308.555C313.805 145.625 317.78 144.475 320.48 142.175C323.23 139.875 324.605 136.65 324.605 132.5C324.605 128.3 323.23 125.05 320.48 122.75C317.78 120.45 313.805 119.3 308.555 119.3H292.13L294.605 116.675V148.25ZM355.704 137.975H383.454V142.7H355.704V137.975ZM356.304 162.2H387.879V167H350.754V114.5H386.754V119.3H356.304V162.2ZM422.9 167.45C419 167.45 415.25 166.825 411.65 165.575C408.1 164.275 405.35 162.625 403.4 160.625L405.575 156.35C407.425 158.15 409.9 159.675 413 160.925C416.15 162.125 419.45 162.725 422.9 162.725C426.2 162.725 428.875 162.325 430.925 161.525C433.025 160.675 434.55 159.55 435.5 158.15C436.5 156.75 437 155.2 437 153.5C437 151.45 436.4 149.8 435.2 148.55C434.05 147.3 432.525 146.325 430.625 145.625C428.725 144.875 426.625 144.225 424.325 143.675C422.025 143.125 419.725 142.55 417.425 141.95C415.125 141.3 413 140.45 411.05 139.4C409.15 138.35 407.6 136.975 406.4 135.275C405.25 133.525 404.675 131.25 404.675 128.45C404.675 125.85 405.35 123.475 406.7 121.325C408.1 119.125 410.225 117.375 413.075 116.075C415.925 114.725 419.575 114.05 424.025 114.05C426.975 114.05 429.9 114.475 432.8 115.325C435.7 116.125 438.2 117.25 440.3 118.7L438.425 123.125C436.175 121.625 433.775 120.525 431.225 119.825C428.725 119.125 426.3 118.775 423.95 118.775C420.8 118.775 418.2 119.2 416.15 120.05C414.1 120.9 412.575 122.05 411.575 123.5C410.625 124.9 410.15 126.5 410.15 128.3C410.15 130.35 410.725 132 411.875 133.25C413.075 134.5 414.625 135.475 416.525 136.175C418.475 136.875 420.6 137.5 422.9 138.05C425.2 138.6 427.475 139.2 429.725 139.85C432.025 140.5 434.125 141.35 436.025 142.4C437.975 143.4 439.525 144.75 440.675 146.45C441.875 148.15 442.475 150.375 442.475 153.125C442.475 155.675 441.775 158.05 440.375 160.25C438.975 162.4 436.825 164.15 433.925 165.5C431.075 166.8 427.4 167.45 422.9 167.45ZM476.543 167.45C472.643 167.45 468.893 166.825 465.293 165.575C461.743 164.275 458.993 162.625 457.043 160.625L459.218 156.35C461.068 158.15 463.543 159.675 466.643 160.925C469.793 162.125 473.093 162.725 476.543 162.725C479.843 162.725 482.518 162.325 484.568 161.525C486.668 160.675 488.193 159.55 489.143 158.15C490.143 156.75 490.643 155.2 490.643 153.5C490.643 151.45 490.043 149.8 488.843 148.55C487.693 147.3 486.168 146.325 484.268 145.625C482.368 144.875 480.268 144.225 477.968 143.675C475.668 143.125 473.368 142.55 471.068 141.95C468.768 141.3 466.643 140.45 464.693 139.4C462.793 138.35 461.243 136.975 460.043 135.275C458.893 133.525 458.318 131.25 458.318 128.45C458.318 125.85 458.993 123.475 460.343 121.325C461.743 119.125 463.868 117.375 466.718 116.075C469.568 114.725 473.218 114.05 477.668 114.05C480.618 114.05 483.543 114.475 486.443 115.325C489.343 116.125 491.843 117.25 493.943 118.7L492.068 123.125C489.818 121.625 487.418 120.525 484.868 119.825C482.368 119.125 479.943 118.775 477.593 118.775C474.443 118.775 471.843 119.2 469.793 120.05C467.743 120.9 466.218 122.05 465.218 123.5C464.268 124.9 463.793 126.5 463.793 128.3C463.793 130.35 464.368 132 465.518 133.25C466.718 134.5 468.268 135.475 470.168 136.175C472.118 136.875 474.243 137.5 476.543 138.05C478.843 138.6 481.118 139.2 483.368 139.85C485.668 140.5 487.768 141.35 489.668 142.4C491.618 143.4 493.168 144.75 494.318 146.45C495.518 148.15 496.118 150.375 496.118 153.125C496.118 155.675 495.418 158.05 494.018 160.25C492.618 162.4 490.468 164.15 487.568 165.5C484.718 166.8 481.043 167.45 476.543 167.45ZM515.71 167V114.5H521.26V167H515.71ZM568.792 167.45C564.842 167.45 561.167 166.8 557.767 165.5C554.417 164.15 551.492 162.275 548.992 159.875C546.542 157.425 544.617 154.6 543.217 151.4C541.867 148.15 541.192 144.6 541.192 140.75C541.192 136.9 541.867 133.375 543.217 130.175C544.617 126.925 546.542 124.1 548.992 121.7C551.492 119.25 554.417 117.375 557.767 116.075C561.117 114.725 564.792 114.05 568.792 114.05C572.742 114.05 576.392 114.725 579.742 116.075C583.092 117.375 585.992 119.225 588.442 121.625C590.942 124.025 592.867 126.85 594.217 130.1C595.617 133.35 596.317 136.9 596.317 140.75C596.317 144.6 595.617 148.15 594.217 151.4C592.867 154.65 590.942 157.475 588.442 159.875C585.992 162.275 583.092 164.15 579.742 165.5C576.392 166.8 572.742 167.45 568.792 167.45ZM568.792 162.5C571.942 162.5 574.842 161.975 577.492 160.925C580.192 159.825 582.517 158.3 584.467 156.35C586.467 154.35 588.017 152.05 589.117 149.45C590.217 146.8 590.767 143.9 590.767 140.75C590.767 137.6 590.217 134.725 589.117 132.125C588.017 129.475 586.467 127.175 584.467 125.225C582.517 123.225 580.192 121.7 577.492 120.65C574.842 119.55 571.942 119 568.792 119C565.642 119 562.717 119.55 560.017 120.65C557.317 121.7 554.967 123.225 552.967 125.225C551.017 127.175 549.467 129.475 548.317 132.125C547.217 134.725 546.667 137.6 546.667 140.75C546.667 143.85 547.217 146.725 548.317 149.375C549.467 152.025 551.017 154.35 552.967 156.35C554.967 158.3 557.317 159.825 560.017 160.925C562.717 161.975 565.642 162.5 568.792 162.5ZM616.257 167V114.5H620.832L657.057 160.1H654.657V114.5H660.132V167H655.557L619.407 121.4H621.807V167H616.257Z" fill="#2EAC68"/>
</svg>
