<svg xmlns="http://www.w3.org/2000/svg" version="1.0" width="1280.000000pt" height="650.000000pt" viewBox="0 0 1280.000000 650.000000" preserveAspectRatio="xMidYMid meet">
<metadata>
Created by potrace 1.15, written by Peter Selinger 2001-2017
</metadata>
<g transform="translate(0.000000,650.000000) scale(0.100000,-0.100000)" fill="#8042c7" stroke="none">
<path d="M10965 6338 c-202 -162 -294 -208 -423 -208 -132 0 -223 52 -318 180 -32 44 -64 80 -71 80 -11 0 -35 -63 -48 -127 -6 -28 -11 -33 -35 -33 -15 0 -45 7 -66 16 -31 13 -61 15 -144 11 -111 -6 -170 -20 -170 -43 0 -7 16 -16 38 -20 49 -9 136 -50 158 -75 26 -29 8 -53 -42 -57 -34 -2 -135 21 -186 43 -14 6 -18 2 -18 -16 0 -17 22 -45 71 -90 59 -56 70 -71 67 -95 -3 -25 -9 -29 -63 -41 -132 -29 -220 -39 -280 -31 -56 8 -158 42 -179 60 -15 12 -36 10 -36 -4 0 -6 34 -46 75 -89 41 -42 75 -81 75 -87 0 -13 -71 -34 -207 -61 -116 -24 -156 -26 -219 -10 -38 10 -48 9 -61 -4 -14 -14 -13 -18 14 -46 17 -16 41 -32 54 -35 89 -17 164 -38 175 -47 24 -20 16 -46 -18 -59 -18 -6 -49 -18 -68 -26 -60 -24 -211 -45 -313 -43 -54 1 -100 -1 -104 -4 -12 -13 8 -37 44 -55 21 -10 72 -25 113 -32 144 -24 154 -42 53 -92 -66 -32 -72 -33 -227 -38 -102 -3 -161 -9 -163 -16 -2 -6 16 -24 39 -39 83 -55 158 -116 158 -131 0 -7 -19 -27 -42 -44 -36 -26 -49 -30 -109 -30 -37 0 -102 5 -143 11 -131 18 -126 -2 24 -97 60 -38 112 -77 116 -87 19 -55 -171 -147 -274 -133 -26 4 -68 12 -95 18 -73 18 -80 0 -18 -52 68 -57 66 -71 -11 -96 -48 -14 -92 -19 -188 -19 l-125 0 -41 -79 c-46 -90 -67 -109 -168 -159 -93 -47 -174 -73 -297 -97 -85 -17 -142 -20 -367 -20 -275 0 -390 9 -622 51 -122 22 -256 52 -330 74 -25 7 -106 30 -180 50 -74 20 -155 43 -180 50 -118 35 -252 66 -395 89 -44 8 -118 28 -165 45 l-85 32 -270 -5 c-279 -5 -418 -20 -615 -65 -146 -34 -211 -44 -259 -38 -44 5 -168 51 -276 102 -327 152 -425 194 -565 237 -106 32 -290 32 -405 -1 -138 -40 -451 -148 -520 -181 -11 -5 -38 -16 -60 -24 -22 -7 -85 -30 -140 -50 -266 -97 -334 -114 -399 -97 -65 16 -112 14 -155 -9 -38 -19 -56 -43 -45 -61 3 -5 31 -20 62 -35 31 -14 71 -31 87 -39 17 -8 59 -26 95 -40 36 -14 74 -30 85 -35 31 -15 105 -40 165 -57 41 -11 78 -13 151 -8 112 8 124 0 88 -65 -33 -58 -24 -66 86 -80 253 -31 397 2 644 148 181 107 228 130 352 166 138 40 372 -3 486 -90 46 -35 43 -63 -14 -126 -161 -179 -320 -384 -365 -473 -60 -117 -116 -381 -138 -653 -27 -333 -66 -430 -193 -491 -136 -65 -453 -89 -778 -60 -154 14 -171 9 -212 -71 -100 -193 -264 -439 -412 -617 -122 -147 -384 -407 -532 -527 -128 -104 -136 -115 -148 -206 -13 -92 -48 -183 -87 -222 -50 -50 -82 -50 -129 -2 -46 49 -65 54 -124 37 -81 -24 -119 -48 -231 -145 -119 -103 -140 -130 -149 -199 -9 -65 4 -87 58 -93 23 -2 94 -12 157 -20 182 -25 222 -22 299 20 134 74 313 240 697 651 509 542 737 733 881 736 88 2 115 -42 90 -148 -46 -194 -309 -615 -481 -771 l-56 -51 0 -124 c0 -68 -4 -129 -8 -135 -4 -6 -21 -19 -39 -28 -42 -21 -74 -9 -122 46 -67 75 -101 58 -318 -156 -106 -104 -153 -156 -153 -172 0 -28 47 -56 141 -85 61 -19 87 -21 173 -16 96 6 190 28 246 58 60 33 103 70 243 208 102 101 154 160 168 191 11 25 28 54 38 65 11 11 42 65 71 120 29 55 71 134 93 175 22 41 64 122 94 180 113 216 192 321 313 415 185 144 549 211 909 169 72 -8 253 21 347 56 128 48 194 93 379 260 218 196 260 228 357 273 76 36 212 67 293 67 79 0 229 -34 365 -83 174 -63 212 -80 605 -267 168 -80 199 -94 265 -120 30 -12 66 -26 80 -32 26 -10 126 -44 215 -71 28 -9 97 -26 155 -38 95 -21 129 -23 345 -21 132 1 317 6 410 12 94 6 292 15 440 20 149 5 380 15 515 21 220 11 255 10 345 -5 103 -17 117 -21 315 -80 227 -68 234 -70 313 -50 77 19 178 15 347 -12 124 -21 459 -20 640 0 153 18 341 33 510 42 l115 6 60 -52 c33 -29 61 -59 63 -66 2 -7 -3 -25 -11 -41 -8 -15 -18 -76 -22 -137 -7 -104 -9 -113 -55 -203 -75 -145 -77 -154 -46 -217 30 -61 32 -79 11 -96 -18 -15 -81 -5 -139 21 -66 30 -84 25 -142 -36 -56 -59 -154 -211 -203 -314 -46 -98 -35 -103 158 -76 309 45 443 149 603 465 70 137 76 162 49 196 -27 34 -26 48 3 106 13 25 28 60 34 77 17 47 42 39 120 -38 151 -150 375 -484 396 -590 7 -39 22 -61 42 -61 8 0 44 -14 81 -32 113 -53 203 -163 228 -278 16 -72 67 -124 156 -161 48 -20 76 -23 250 -26 223 -5 239 -2 239 52 0 44 -36 78 -104 100 -28 9 -67 26 -86 38 -87 52 -290 277 -481 532 -185 246 -533 760 -657 970 l-41 70 6 120 c6 115 -2 197 -27 286 -12 41 -27 48 -190 88 -287 69 -238 65 -645 57 -381 -7 -477 -2 -562 31 -51 19 -51 22 -24 161 32 161 41 289 41 592 0 317 12 469 41 536 12 26 44 65 84 100 53 47 66 64 75 103 6 25 20 80 31 121 11 41 27 98 34 125 7 28 27 92 44 144 17 52 31 99 31 104 0 28 97 221 164 326 28 44 71 112 94 150 71 114 61 112 198 42 66 -33 155 -76 199 -96 198 -92 325 -160 383 -206 63 -50 125 -133 138 -183 8 -33 37 -54 149 -107 66 -32 92 -40 104 -32 9 5 30 39 48 75 17 36 36 69 42 72 6 4 32 -4 59 -18 l48 -24 31 19 c17 11 35 32 41 47 34 90 86 271 86 296 0 39 -72 143 -336 483 -247 319 -319 417 -316 432 2 8 19 19 38 24 61 15 64 25 24 92 -20 33 -49 89 -65 125 -28 61 -34 68 -107 110 -98 58 -116 87 -97 163 8 29 23 78 35 110 30 84 19 90 -74 46 -22 -11 -48 -19 -59 -19 -17 0 -19 5 -11 48 12 74 10 96 -6 99 -8 1 -82 -52 -165 -119z"/>
</g>
</svg>